# xmcd CD database file
# Copyright (C) 1993-1998 Ti Kan
#
# Track frame offsets:
#	150
#	15968
#	31698
#	48803
#
# Disc length: 785 seconds
#
# Revision: 0
# Processed by: cddbd v1.4b41PL1 Copyright (c) Steve Scherf et al.
# Submitted via: CDmax 1.5
#
DISCID=1a030f04
DTITLE=Willie Nelson - Always On My Mind (Single CD)
DYEAR=1900
DGENRE=
TTITLE0=Always Ons My Mind
TTITLE1=Let It Be Me
TTITLE2=Unchained Melody
TTITLE3=What A Wonderful World
EXTD=
EXTT0=
EXTT1=
EXTT2=
EXTT3=
PLAYORDER=
